<?xml version="1.0" encoding="utf-8"?>
<!-- Designed by Vexels.com - 2020 All Rights Reserved - https://vexels.com/terms-and-conditions/  -->
<svg version="1.1" id="Layer_1" xmlns="http://www.w3.org/2000/svg" xmlns:xlink="http://www.w3.org/1999/xlink" x="0px" y="0px"
	 viewBox="0 0 1200 1200" enable-background="new 0 0 1200 1200" xml:space="preserve">
<g>
	<rect x="527.049" y="879.63" fill="none" width="147.706" height="120.608"/>
	<path fill="none" d="M344.104,1042.217c-12.914,0-23.414,10.501-23.414,23.414v42.389h580.518v-42.389
		c0-12.914-10.501-23.414-23.414-23.414H716.734H485.069H344.104z"/>
	<path fill="none" d="M825.126,610.026h65.727c11.59,0,20.99,9.4,20.99,20.99s-9.4,20.99-20.99,20.99h-585.32
		c-11.59,0-20.99-9.4-20.99-20.99s9.4-20.99,20.99-20.99h51.274v-377.14H153.095V837.65h331.975h231.665h330.171V232.886H825.126
		V610.026z"/>
	<path fill="#4549CE" d="M1058.706,190.907h-233.58V70.99c0-11.59-9.4-20.99-20.99-20.99h-426.34c-11.59,0-20.99,9.4-20.99,20.99
		v119.917H141.294c-16.638,0-30.178,13.54-30.178,30.178v628.371c0,16.638,13.54,30.173,30.178,30.173h343.776v120.608H344.104
		c-36.058,0-65.393,29.335-65.393,65.393v48.234c0,19.924,16.211,36.135,36.14,36.135h592.202c19.924,0,36.135-16.211,36.135-36.135
		v-48.234c0-36.058-29.335-65.393-65.394-65.393H716.734V879.63h341.972c16.638,0,30.178-13.534,30.178-30.173V221.085
		C1088.885,204.447,1075.344,190.907,1058.706,190.907z M783.147,91.979v518.047H398.786V91.979H783.147z M877.794,1042.217
		c12.914,0,23.414,10.501,23.414,23.414v42.389H320.69v-42.389c0-12.914,10.501-23.414,23.414-23.414h140.966h231.665H877.794z
		 M674.755,1000.238H527.049V879.63h147.706V1000.238z M1046.905,837.65H716.734H485.069H153.095V232.886h203.712v377.14h-51.274
		c-11.59,0-20.99,9.4-20.99,20.99s9.4,20.99,20.99,20.99h585.32c11.59,0,20.99-9.4,20.99-20.99s-9.4-20.99-20.99-20.99h-65.727
		v-377.14h221.779V837.65z"/>
	<path fill="#4549CE" d="M710.199,420.92H471.734c-8.281,0-14.993,6.712-14.993,14.993s6.712,14.993,14.993,14.993h238.464
		c8.281,0,14.993-6.712,14.993-14.993S718.48,420.92,710.199,420.92z"/>
	<path fill="#FD7081" d="M527.295,209.618c0,11.35,2.922,20.726,8.691,27.871c5.646,6.993,12.714,12.345,21.007,15.9
		c7.514,3.233,16.878,6.261,27.871,9.013v53.499c-8.732-0.867-17.195-2.893-25.206-6.038c-4.738-1.851-9.095-3.982-12.949-6.343
		c-3.332-2.032-7.385-2.559-11.116-1.441c-3.777,1.124-6.917,3.824-8.603,7.391c-2.934,6.184-0.99,13.634,4.521,17.323
		c5.605,3.76,12.351,7.069,20.053,9.827c10.46,3.76,21.651,6.108,33.3,6.993v17.827c0,6.143,5.001,11.145,11.145,11.145
		c6.143,0,11.145-5.001,11.145-11.145V343.55c18.442-1.874,32.896-7.537,42.981-16.843h0.006
		c10.688-9.897,16.111-22.12,16.111-36.334c0-11.537-3.022-20.972-8.978-28.047c-5.827-6.887-13.025-12.135-21.394-15.602
		c-7.572-3.145-17.23-6.214-28.726-9.13v-53.774c9.786,0.931,19.373,3.602,28.533,7.953c3.573,1.704,7.731,1.874,11.391,0.469
		c3.602-1.388,6.401-4.117,7.877-7.69c2.835-6.858-0.246-14.84-7.01-18.179c-4.545-2.231-9.523-4.158-14.782-5.722
		c-8.357-2.507-17.089-4.041-26.009-4.574v-17.774c0-6.143-5.001-11.145-11.145-11.145c-6.143,0-11.145,5.001-11.145,11.145v18.149
		c-18.149,1.892-32.275,7.561-42.009,16.873C532.53,183.2,527.295,195.411,527.295,209.618z M627.821,277.191
		c5.031,3.42,7.473,8.234,7.473,14.706c0,6.448-2.448,11.66-7.479,15.936h-0.006c-4.627,3.947-11.567,6.536-20.656,7.719v-47.414
		C615.991,270.825,622.931,273.864,627.821,277.191z M558.252,208.605c0-6.319,2.348-11.549,7.18-16.006
		c4.375-4.035,10.905-6.817,19.432-8.287v47.625c-8.287-2.419-14.823-5.335-19.449-8.685
		C560.595,219.738,558.252,214.948,558.252,208.605z"/>
	<path fill="#4549CE" d="M710.199,510.343H471.734c-8.281,0-14.993,6.712-14.993,14.993s6.712,14.993,14.993,14.993h238.464
		c8.281,0,14.993-6.712,14.993-14.993S718.48,510.343,710.199,510.343z"/>
</g>
</svg>
